<svg xmlns="http://www.w3.org/2000/svg" xmlns:xlink="http://www.w3.org/1999/xlink" width="500" zoomAndPan="magnify" viewBox="0 0 375 374.999991" height="500" preserveAspectRatio="xMidYMid meet" version="1.0"><defs><g/></defs><g fill="#ffffff" fill-opacity="1"><g transform="translate(22.478073, 199.897519)"><g><path d="M 4.828125 0 L 11.515625 0 L 11.515625 -25.453125 L 35.921875 -25.453125 L 35.921875 -31.171875 L 11.515625 -31.171875 L 11.515625 -50.8125 L 40.671875 -50.8125 L 40.671875 -56.78125 L 4.828125 -56.78125 Z M 4.828125 0 "/></g></g></g><g fill="#ffffff" fill-opacity="1"><g transform="translate(64.753503, 199.897519)"><g><path d="M 7.734375 -48.5625 C 10.390625 -48.5625 12.328125 -50.328125 12.328125 -53.0625 C 12.328125 -55.734375 10.390625 -57.5 7.734375 -57.5 C 5 -57.5 3.21875 -55.734375 3.21875 -53.0625 C 3.21875 -50.328125 5 -48.5625 7.734375 -48.5625 Z M 4.59375 0 L 10.703125 0 L 10.703125 -40.671875 L 4.59375 -40.671875 Z M 4.59375 0 "/></g></g></g><g fill="#ffffff" fill-opacity="1"><g transform="translate(80.294758, 199.897519)"><g><path d="M 25.84375 -42.28125 C 18.765625 -42.28125 13.6875 -39.546875 10.234375 -34.625 L 10.140625 -34.625 L 9.578125 -40.671875 L 4.03125 -40.671875 L 4.03125 0 L 10.140625 0 L 10.140625 -22.953125 C 10.140625 -31.25 16.03125 -36.96875 24.15625 -36.96875 C 30.609375 -36.96875 34.703125 -32.53125 34.703125 -25.609375 L 34.703125 0 L 40.90625 0 L 40.90625 -26.25 C 40.90625 -36.3125 35.1875 -42.28125 25.84375 -42.28125 Z M 25.84375 -42.28125 "/></g></g></g><g fill="#ffffff" fill-opacity="1"><g transform="translate(124.824877, 199.897519)"><g><path d="M 24.890625 1.609375 C 33.984375 1.609375 41.640625 -2.984375 44.296875 -9.5 L 38.984375 -11.671875 C 36.71875 -7.25 31.328125 -3.953125 24.96875 -3.953125 C 16.1875 -3.953125 9.65625 -9.828125 8.78125 -18.28125 L 43 -18.28125 C 43.078125 -19.078125 43.078125 -19.96875 43.078125 -20.703125 C 42.921875 -33.265625 35.109375 -42.28125 23.1875 -42.28125 C 11.109375 -42.28125 2.421875 -33.265625 2.421875 -20.78125 C 2.421875 -7.8125 11.921875 1.609375 24.890625 1.609375 Z M 8.859375 -23.671875 C 9.984375 -31.40625 15.546875 -36.640625 23.109375 -36.640625 C 30.515625 -36.640625 35.75 -31.96875 36.5625 -23.671875 Z M 8.859375 -23.671875 "/></g></g></g><g fill="#ffffff" fill-opacity="1"><g transform="translate(171.04917, 199.897519)"><g><path d="M 4.671875 0 L 14.65625 0 L 14.65625 -23.59375 L 37.28125 -23.59375 L 37.28125 -31.5625 L 14.65625 -31.5625 L 14.65625 -48.3125 L 42.125 -48.3125 L 42.125 -57.09375 L 4.671875 -57.09375 Z M 4.671875 0 "/></g></g></g><g fill="#ffffff" fill-opacity="1"><g transform="translate(214.693519, 199.897519)"><g><path d="M 3.625 0 L 12.71875 0 L 12.71875 -59.515625 L 3.625 -59.515625 Z M 3.625 0 "/></g></g></g><g fill="#ffffff" fill-opacity="1"><g transform="translate(231.040018, 199.897519)"><g><path d="M 24.40625 1.609375 C 37.84375 1.609375 46.703125 -7.171875 46.703125 -20.453125 C 46.703125 -33.828125 37.84375 -42.59375 24.40625 -42.59375 C 10.953125 -42.59375 2.09375 -33.828125 2.09375 -20.453125 C 2.09375 -7.171875 10.953125 1.609375 24.40625 1.609375 Z M 24.40625 -6.125 C 16.265625 -6.125 11.109375 -11.75 11.109375 -20.453125 C 11.109375 -29.15625 16.265625 -34.703125 24.40625 -34.703125 C 32.453125 -34.703125 37.6875 -29.15625 37.6875 -20.453125 C 37.6875 -11.75 32.453125 -6.125 24.40625 -6.125 Z M 24.40625 -6.125 "/></g></g></g><g fill="#ffffff" fill-opacity="1"><g transform="translate(279.837943, 199.897519)"><g><path d="M 13.765625 0 L 24.640625 0 L 34.3125 -31.65625 L 34.46875 -31.65625 L 44.375 0 L 55.078125 0 L 68.125 -40.984375 L 58.953125 -40.984375 L 49.53125 -8.296875 L 49.453125 -8.296875 L 39.0625 -40.984375 L 29.640625 -40.984375 L 19.40625 -8.453125 L 19.328125 -8.453125 L 9.90625 -40.984375 L 0.640625 -40.984375 Z M 13.765625 0 "/></g></g></g><g fill="#ffffff" fill-opacity="1"><g transform="translate(24.671055, 218.142202)"><g><path d="M 1.5625 -6.65625 L 1.5625 -3.953125 L 4.3125 -3.953125 L 4.3125 -3.34375 L 1.5625 -3.34375 L 1.5625 -0.609375 L 4.609375 -0.609375 L 4.609375 0 L 0.828125 0 L 0.828125 -7.265625 L 4.609375 -7.265625 L 4.609375 -6.65625 Z M 1.5625 -6.65625 "/></g></g></g><g fill="#ffffff" fill-opacity="1"><g transform="translate(29.887684, 218.142202)"><g><path d="M 3.0625 -5.046875 L 1.75 -5.046875 L 1.75 0 L 1.015625 0 L 1.015625 -5.046875 L 0.234375 -5.046875 L 0.234375 -5.671875 L 1.015625 -5.671875 L 1.015625 -6.0625 C 1.015625 -6.675781 1.171875 -7.128906 1.484375 -7.421875 C 1.796875 -7.710938 2.304688 -7.859375 3.015625 -7.859375 L 3.015625 -7.234375 C 2.546875 -7.234375 2.21875 -7.140625 2.03125 -6.953125 C 1.84375 -6.773438 1.75 -6.476562 1.75 -6.0625 L 1.75 -5.671875 L 3.0625 -5.671875 Z M 3.0625 -5.046875 "/></g></g></g><g fill="#ffffff" fill-opacity="1"><g transform="translate(33.258266, 218.142202)"><g><path d="M 3.0625 -5.046875 L 1.75 -5.046875 L 1.75 0 L 1.015625 0 L 1.015625 -5.046875 L 0.234375 -5.046875 L 0.234375 -5.671875 L 1.015625 -5.671875 L 1.015625 -6.0625 C 1.015625 -6.675781 1.171875 -7.128906 1.484375 -7.421875 C 1.796875 -7.710938 2.304688 -7.859375 3.015625 -7.859375 L 3.015625 -7.234375 C 2.546875 -7.234375 2.21875 -7.140625 2.03125 -6.953125 C 1.84375 -6.773438 1.75 -6.476562 1.75 -6.0625 L 1.75 -5.671875 L 3.0625 -5.671875 Z M 3.0625 -5.046875 "/></g></g></g><g fill="#ffffff" fill-opacity="1"><g transform="translate(36.628849, 218.142202)"><g><path d="M 1.1875 -6.734375 C 1.039062 -6.734375 0.914062 -6.785156 0.8125 -6.890625 C 0.707031 -6.992188 0.65625 -7.117188 0.65625 -7.265625 C 0.65625 -7.421875 0.707031 -7.546875 0.8125 -7.640625 C 0.914062 -7.742188 1.039062 -7.796875 1.1875 -7.796875 C 1.332031 -7.796875 1.457031 -7.742188 1.5625 -7.640625 C 1.664062 -7.546875 1.71875 -7.421875 1.71875 -7.265625 C 1.71875 -7.117188 1.664062 -6.992188 1.5625 -6.890625 C 1.457031 -6.785156 1.332031 -6.734375 1.1875 -6.734375 Z M 1.5625 -5.671875 L 1.5625 0 L 0.828125 0 L 0.828125 -5.671875 Z M 1.5625 -5.671875 "/></g></g></g><g fill="#ffffff" fill-opacity="1"><g transform="translate(39.003818, 218.142202)"><g><path d="M 0.5 -2.828125 C 0.5 -3.421875 0.613281 -3.9375 0.84375 -4.375 C 1.082031 -4.8125 1.410156 -5.148438 1.828125 -5.390625 C 2.242188 -5.628906 2.71875 -5.75 3.25 -5.75 C 3.945312 -5.75 4.519531 -5.570312 4.96875 -5.21875 C 5.425781 -4.875 5.71875 -4.40625 5.84375 -3.8125 L 5.078125 -3.8125 C 4.972656 -4.226562 4.757812 -4.550781 4.4375 -4.78125 C 4.125 -5.007812 3.726562 -5.125 3.25 -5.125 C 2.863281 -5.125 2.519531 -5.035156 2.21875 -4.859375 C 1.914062 -4.691406 1.675781 -4.4375 1.5 -4.09375 C 1.320312 -3.75 1.234375 -3.328125 1.234375 -2.828125 C 1.234375 -2.328125 1.320312 -1.90625 1.5 -1.5625 C 1.675781 -1.21875 1.914062 -0.957031 2.21875 -0.78125 C 2.519531 -0.613281 2.863281 -0.53125 3.25 -0.53125 C 3.726562 -0.53125 4.125 -0.644531 4.4375 -0.875 C 4.757812 -1.101562 4.972656 -1.425781 5.078125 -1.84375 L 5.84375 -1.84375 C 5.71875 -1.257812 5.425781 -0.789062 4.96875 -0.4375 C 4.507812 -0.09375 3.9375 0.078125 3.25 0.078125 C 2.71875 0.078125 2.242188 -0.0390625 1.828125 -0.28125 C 1.410156 -0.519531 1.082031 -0.859375 0.84375 -1.296875 C 0.613281 -1.734375 0.5 -2.242188 0.5 -2.828125 Z M 0.5 -2.828125 "/></g></g></g><g fill="#ffffff" fill-opacity="1"><g transform="translate(45.361262, 218.142202)"><g><path d="M 1.1875 -6.734375 C 1.039062 -6.734375 0.914062 -6.785156 0.8125 -6.890625 C 0.707031 -6.992188 0.65625 -7.117188 0.65625 -7.265625 C 0.65625 -7.421875 0.707031 -7.546875 0.8125 -7.640625 C 0.914062 -7.742188 1.039062 -7.796875 1.1875 -7.796875 C 1.332031 -7.796875 1.457031 -7.742188 1.5625 -7.640625 C 1.664062 -7.546875 1.71875 -7.421875 1.71875 -7.265625 C 1.71875 -7.117188 1.664062 -6.992188 1.5625 -6.890625 C 1.457031 -6.785156 1.332031 -6.734375 1.1875 -6.734375 Z M 1.5625 -5.671875 L 1.5625 0 L 0.828125 0 L 0.828125 -5.671875 Z M 1.5625 -5.671875 "/></g></g></g><g fill="#ffffff" fill-opacity="1"><g transform="translate(47.736232, 218.142202)"><g><path d="M 5.953125 -3.125 C 5.953125 -2.875 5.945312 -2.679688 5.9375 -2.546875 L 1.234375 -2.546875 C 1.253906 -2.117188 1.359375 -1.753906 1.546875 -1.453125 C 1.734375 -1.148438 1.976562 -0.921875 2.28125 -0.765625 C 2.582031 -0.609375 2.914062 -0.53125 3.28125 -0.53125 C 3.75 -0.53125 4.144531 -0.644531 4.46875 -0.875 C 4.789062 -1.101562 5.003906 -1.410156 5.109375 -1.796875 L 5.875 -1.796875 C 5.738281 -1.242188 5.441406 -0.789062 4.984375 -0.4375 C 4.535156 -0.09375 3.96875 0.078125 3.28125 0.078125 C 2.75 0.078125 2.269531 -0.0390625 1.84375 -0.28125 C 1.425781 -0.519531 1.097656 -0.859375 0.859375 -1.296875 C 0.617188 -1.734375 0.5 -2.242188 0.5 -2.828125 C 0.5 -3.421875 0.613281 -3.9375 0.84375 -4.375 C 1.082031 -4.820312 1.410156 -5.160156 1.828125 -5.390625 C 2.253906 -5.628906 2.738281 -5.75 3.28125 -5.75 C 3.820312 -5.75 4.289062 -5.628906 4.6875 -5.390625 C 5.09375 -5.160156 5.40625 -4.84375 5.625 -4.4375 C 5.84375 -4.039062 5.953125 -3.601562 5.953125 -3.125 Z M 5.21875 -3.140625 C 5.226562 -3.566406 5.144531 -3.925781 4.96875 -4.21875 C 4.789062 -4.519531 4.546875 -4.742188 4.234375 -4.890625 C 3.929688 -5.046875 3.601562 -5.125 3.25 -5.125 C 2.707031 -5.125 2.242188 -4.953125 1.859375 -4.609375 C 1.484375 -4.265625 1.273438 -3.773438 1.234375 -3.140625 Z M 5.21875 -3.140625 "/></g></g></g><g fill="#ffffff" fill-opacity="1"><g transform="translate(54.187014, 218.142202)"><g><path d="M 3.484375 -5.765625 C 4.160156 -5.765625 4.710938 -5.554688 5.140625 -5.140625 C 5.578125 -4.722656 5.796875 -4.113281 5.796875 -3.3125 L 5.796875 0 L 5.078125 0 L 5.078125 -3.234375 C 5.078125 -3.847656 4.921875 -4.316406 4.609375 -4.640625 C 4.304688 -4.972656 3.882812 -5.140625 3.34375 -5.140625 C 2.800781 -5.140625 2.367188 -4.960938 2.046875 -4.609375 C 1.722656 -4.265625 1.5625 -3.757812 1.5625 -3.09375 L 1.5625 0 L 0.828125 0 L 0.828125 -5.671875 L 1.5625 -5.671875 L 1.5625 -4.703125 C 1.738281 -5.046875 1.992188 -5.304688 2.328125 -5.484375 C 2.671875 -5.671875 3.054688 -5.765625 3.484375 -5.765625 Z M 3.484375 -5.765625 "/></g></g></g><g fill="#ffffff" fill-opacity="1"><g transform="translate(60.751871, 218.142202)"><g><path d="M 1.78125 -5.046875 L 1.78125 -1.53125 C 1.78125 -1.1875 1.84375 -0.945312 1.96875 -0.8125 C 2.101562 -0.6875 2.335938 -0.625 2.671875 -0.625 L 3.328125 -0.625 L 3.328125 0 L 2.546875 0 C 2.035156 0 1.65625 -0.117188 1.40625 -0.359375 C 1.15625 -0.597656 1.03125 -0.988281 1.03125 -1.53125 L 1.03125 -5.046875 L 0.25 -5.046875 L 0.25 -5.671875 L 1.03125 -5.671875 L 1.03125 -7.09375 L 1.78125 -7.09375 L 1.78125 -5.671875 L 3.328125 -5.671875 L 3.328125 -5.046875 Z M 1.78125 -5.046875 "/></g></g></g><g fill="#ffffff" fill-opacity="1"><g transform="translate(64.443952, 218.142202)"><g/></g></g><g fill="#ffffff" fill-opacity="1"><g transform="translate(67.285612, 218.142202)"><g><path d="M 5.078125 -7.25 L 5.078125 -6.65625 L 3.0625 -6.65625 L 3.0625 0 L 2.328125 0 L 2.328125 -6.65625 L 0.3125 -6.65625 L 0.3125 -7.25 Z M 5.078125 -7.25 "/></g></g></g><g fill="#ffffff" fill-opacity="1"><g transform="translate(72.678548, 218.142202)"><g><path d="M 1.5625 -4.65625 C 1.71875 -5.007812 1.957031 -5.28125 2.28125 -5.46875 C 2.613281 -5.664062 3.019531 -5.765625 3.5 -5.765625 L 3.5 -5.015625 L 3.296875 -5.015625 C 2.773438 -5.015625 2.351562 -4.867188 2.03125 -4.578125 C 1.71875 -4.296875 1.5625 -3.828125 1.5625 -3.171875 L 1.5625 0 L 0.828125 0 L 0.828125 -5.671875 L 1.5625 -5.671875 Z M 1.5625 -4.65625 "/></g></g></g><g fill="#ffffff" fill-opacity="1"><g transform="translate(76.432862, 218.142202)"><g><path d="M 0.5 -2.84375 C 0.5 -3.425781 0.613281 -3.9375 0.84375 -4.375 C 1.070312 -4.8125 1.390625 -5.148438 1.796875 -5.390625 C 2.210938 -5.628906 2.679688 -5.75 3.203125 -5.75 C 3.742188 -5.75 4.207031 -5.625 4.59375 -5.375 C 4.988281 -5.125 5.273438 -4.804688 5.453125 -4.421875 L 5.453125 -5.671875 L 6.171875 -5.671875 L 6.171875 0 L 5.453125 0 L 5.453125 -1.25 C 5.265625 -0.863281 4.972656 -0.546875 4.578125 -0.296875 C 4.191406 -0.046875 3.734375 0.078125 3.203125 0.078125 C 2.679688 0.078125 2.210938 -0.0390625 1.796875 -0.28125 C 1.390625 -0.519531 1.070312 -0.859375 0.84375 -1.296875 C 0.613281 -1.742188 0.5 -2.257812 0.5 -2.84375 Z M 5.453125 -2.828125 C 5.453125 -3.285156 5.359375 -3.6875 5.171875 -4.03125 C 4.984375 -4.375 4.726562 -4.640625 4.40625 -4.828125 C 4.082031 -5.015625 3.726562 -5.109375 3.34375 -5.109375 C 2.9375 -5.109375 2.570312 -5.019531 2.25 -4.84375 C 1.9375 -4.664062 1.6875 -4.40625 1.5 -4.0625 C 1.320312 -3.71875 1.234375 -3.3125 1.234375 -2.84375 C 1.234375 -2.375 1.320312 -1.960938 1.5 -1.609375 C 1.6875 -1.265625 1.9375 -1 2.25 -0.8125 C 2.570312 -0.632812 2.9375 -0.546875 3.34375 -0.546875 C 3.726562 -0.546875 4.082031 -0.640625 4.40625 -0.828125 C 4.726562 -1.015625 4.984375 -1.28125 5.171875 -1.625 C 5.359375 -1.96875 5.453125 -2.367188 5.453125 -2.828125 Z M 5.453125 -2.828125 "/></g></g></g><g fill="#ffffff" fill-opacity="1"><g transform="translate(83.433304, 218.142202)"><g><path d="M 3.0625 -5.046875 L 1.75 -5.046875 L 1.75 0 L 1.015625 0 L 1.015625 -5.046875 L 0.234375 -5.046875 L 0.234375 -5.671875 L 1.015625 -5.671875 L 1.015625 -6.0625 C 1.015625 -6.675781 1.171875 -7.128906 1.484375 -7.421875 C 1.796875 -7.710938 2.304688 -7.859375 3.015625 -7.859375 L 3.015625 -7.234375 C 2.546875 -7.234375 2.21875 -7.140625 2.03125 -6.953125 C 1.84375 -6.773438 1.75 -6.476562 1.75 -6.0625 L 1.75 -5.671875 L 3.0625 -5.671875 Z M 3.0625 -5.046875 "/></g></g></g><g fill="#ffffff" fill-opacity="1"><g transform="translate(86.803886, 218.142202)"><g><path d="M 3.0625 -5.046875 L 1.75 -5.046875 L 1.75 0 L 1.015625 0 L 1.015625 -5.046875 L 0.234375 -5.046875 L 0.234375 -5.671875 L 1.015625 -5.671875 L 1.015625 -6.0625 C 1.015625 -6.675781 1.171875 -7.128906 1.484375 -7.421875 C 1.796875 -7.710938 2.304688 -7.859375 3.015625 -7.859375 L 3.015625 -7.234375 C 2.546875 -7.234375 2.21875 -7.140625 2.03125 -6.953125 C 1.84375 -6.773438 1.75 -6.476562 1.75 -6.0625 L 1.75 -5.671875 L 3.0625 -5.671875 Z M 3.0625 -5.046875 "/></g></g></g><g fill="#ffffff" fill-opacity="1"><g transform="translate(90.174469, 218.142202)"><g><path d="M 1.1875 -6.734375 C 1.039062 -6.734375 0.914062 -6.785156 0.8125 -6.890625 C 0.707031 -6.992188 0.65625 -7.117188 0.65625 -7.265625 C 0.65625 -7.421875 0.707031 -7.546875 0.8125 -7.640625 C 0.914062 -7.742188 1.039062 -7.796875 1.1875 -7.796875 C 1.332031 -7.796875 1.457031 -7.742188 1.5625 -7.640625 C 1.664062 -7.546875 1.71875 -7.421875 1.71875 -7.265625 C 1.71875 -7.117188 1.664062 -6.992188 1.5625 -6.890625 C 1.457031 -6.785156 1.332031 -6.734375 1.1875 -6.734375 Z M 1.5625 -5.671875 L 1.5625 0 L 0.828125 0 L 0.828125 -5.671875 Z M 1.5625 -5.671875 "/></g></g></g><g fill="#ffffff" fill-opacity="1"><g transform="translate(92.549438, 218.142202)"><g><path d="M 0.5 -2.828125 C 0.5 -3.421875 0.613281 -3.9375 0.84375 -4.375 C 1.082031 -4.8125 1.410156 -5.148438 1.828125 -5.390625 C 2.242188 -5.628906 2.71875 -5.75 3.25 -5.75 C 3.945312 -5.75 4.519531 -5.570312 4.96875 -5.21875 C 5.425781 -4.875 5.71875 -4.40625 5.84375 -3.8125 L 5.078125 -3.8125 C 4.972656 -4.226562 4.757812 -4.550781 4.4375 -4.78125 C 4.125 -5.007812 3.726562 -5.125 3.25 -5.125 C 2.863281 -5.125 2.519531 -5.035156 2.21875 -4.859375 C 1.914062 -4.691406 1.675781 -4.4375 1.5 -4.09375 C 1.320312 -3.75 1.234375 -3.328125 1.234375 -2.828125 C 1.234375 -2.328125 1.320312 -1.90625 1.5 -1.5625 C 1.675781 -1.21875 1.914062 -0.957031 2.21875 -0.78125 C 2.519531 -0.613281 2.863281 -0.53125 3.25 -0.53125 C 3.726562 -0.53125 4.125 -0.644531 4.4375 -0.875 C 4.757812 -1.101562 4.972656 -1.425781 5.078125 -1.84375 L 5.84375 -1.84375 C 5.71875 -1.257812 5.425781 -0.789062 4.96875 -0.4375 C 4.507812 -0.09375 3.9375 0.078125 3.25 0.078125 C 2.71875 0.078125 2.242188 -0.0390625 1.828125 -0.28125 C 1.410156 -0.519531 1.082031 -0.859375 0.84375 -1.296875 C 0.613281 -1.734375 0.5 -2.242188 0.5 -2.828125 Z M 0.5 -2.828125 "/></g></g></g><g fill="#ffffff" fill-opacity="1"><g transform="translate(98.906883, 218.142202)"><g/></g></g><g fill="#ffffff" fill-opacity="1"><g transform="translate(101.748542, 218.142202)"><g><path d="M 0.5 -3.625 C 0.5 -4.34375 0.65625 -4.984375 0.96875 -5.546875 C 1.28125 -6.109375 1.703125 -6.546875 2.234375 -6.859375 C 2.773438 -7.171875 3.378906 -7.328125 4.046875 -7.328125 C 4.859375 -7.328125 5.550781 -7.132812 6.125 -6.75 C 6.707031 -6.375 7.128906 -5.835938 7.390625 -5.140625 L 6.53125 -5.140625 C 6.320312 -5.628906 6.003906 -6.007812 5.578125 -6.28125 C 5.160156 -6.5625 4.648438 -6.703125 4.046875 -6.703125 C 3.515625 -6.703125 3.035156 -6.578125 2.609375 -6.328125 C 2.179688 -6.078125 1.847656 -5.71875 1.609375 -5.25 C 1.367188 -4.78125 1.25 -4.238281 1.25 -3.625 C 1.25 -3.007812 1.367188 -2.46875 1.609375 -2 C 1.847656 -1.539062 2.179688 -1.1875 2.609375 -0.9375 C 3.035156 -0.695312 3.515625 -0.578125 4.046875 -0.578125 C 4.648438 -0.578125 5.160156 -0.710938 5.578125 -0.984375 C 6.003906 -1.253906 6.320312 -1.628906 6.53125 -2.109375 L 7.390625 -2.109375 C 7.128906 -1.421875 6.707031 -0.882812 6.125 -0.5 C 5.539062 -0.125 4.847656 0.0625 4.046875 0.0625 C 3.378906 0.0625 2.773438 -0.09375 2.234375 -0.40625 C 1.703125 -0.71875 1.28125 -1.15625 0.96875 -1.71875 C 0.65625 -2.28125 0.5 -2.914062 0.5 -3.625 Z M 0.5 -3.625 "/></g></g></g><g fill="#ffffff" fill-opacity="1"><g transform="translate(109.744608, 218.142202)"><g><path d="M 3.3125 0.078125 C 2.78125 0.078125 2.300781 -0.0390625 1.875 -0.28125 C 1.445312 -0.519531 1.109375 -0.859375 0.859375 -1.296875 C 0.617188 -1.734375 0.5 -2.242188 0.5 -2.828125 C 0.5 -3.421875 0.625 -3.9375 0.875 -4.375 C 1.125 -4.8125 1.460938 -5.148438 1.890625 -5.390625 C 2.316406 -5.628906 2.796875 -5.75 3.328125 -5.75 C 3.859375 -5.75 4.335938 -5.628906 4.765625 -5.390625 C 5.203125 -5.148438 5.539062 -4.8125 5.78125 -4.375 C 6.03125 -3.9375 6.15625 -3.421875 6.15625 -2.828125 C 6.15625 -2.242188 6.03125 -1.734375 5.78125 -1.296875 C 5.539062 -0.859375 5.203125 -0.519531 4.765625 -0.28125 C 4.328125 -0.0390625 3.84375 0.078125 3.3125 0.078125 Z M 3.3125 -0.546875 C 3.6875 -0.546875 4.03125 -0.628906 4.34375 -0.796875 C 4.664062 -0.972656 4.925781 -1.226562 5.125 -1.5625 C 5.320312 -1.90625 5.421875 -2.328125 5.421875 -2.828125 C 5.421875 -3.328125 5.320312 -3.75 5.125 -4.09375 C 4.925781 -4.4375 4.664062 -4.691406 4.34375 -4.859375 C 4.03125 -5.023438 3.6875 -5.109375 3.3125 -5.109375 C 2.945312 -5.109375 2.601562 -5.023438 2.28125 -4.859375 C 1.96875 -4.691406 1.710938 -4.4375 1.515625 -4.09375 C 1.328125 -3.75 1.234375 -3.328125 1.234375 -2.828125 C 1.234375 -2.328125 1.328125 -1.90625 1.515625 -1.5625 C 1.710938 -1.226562 1.96875 -0.972656 2.28125 -0.796875 C 2.59375 -0.628906 2.9375 -0.546875 3.3125 -0.546875 Z M 3.3125 -0.546875 "/></g></g></g><g fill="#ffffff" fill-opacity="1"><g transform="translate(116.402803, 218.142202)"><g><path d="M 3.484375 -5.765625 C 4.160156 -5.765625 4.710938 -5.554688 5.140625 -5.140625 C 5.578125 -4.722656 5.796875 -4.113281 5.796875 -3.3125 L 5.796875 0 L 5.078125 0 L 5.078125 -3.234375 C 5.078125 -3.847656 4.921875 -4.316406 4.609375 -4.640625 C 4.304688 -4.972656 3.882812 -5.140625 3.34375 -5.140625 C 2.800781 -5.140625 2.367188 -4.960938 2.046875 -4.609375 C 1.722656 -4.265625 1.5625 -3.757812 1.5625 -3.09375 L 1.5625 0 L 0.828125 0 L 0.828125 -5.671875 L 1.5625 -5.671875 L 1.5625 -4.703125 C 1.738281 -5.046875 1.992188 -5.304688 2.328125 -5.484375 C 2.671875 -5.671875 3.054688 -5.765625 3.484375 -5.765625 Z M 3.484375 -5.765625 "/></g></g></g><g fill="#ffffff" fill-opacity="1"><g transform="translate(122.96766, 218.142202)"><g><path d="M 1.78125 -5.046875 L 1.78125 -1.53125 C 1.78125 -1.1875 1.84375 -0.945312 1.96875 -0.8125 C 2.101562 -0.6875 2.335938 -0.625 2.671875 -0.625 L 3.328125 -0.625 L 3.328125 0 L 2.546875 0 C 2.035156 0 1.65625 -0.117188 1.40625 -0.359375 C 1.15625 -0.597656 1.03125 -0.988281 1.03125 -1.53125 L 1.03125 -5.046875 L 0.25 -5.046875 L 0.25 -5.671875 L 1.03125 -5.671875 L 1.03125 -7.09375 L 1.78125 -7.09375 L 1.78125 -5.671875 L 3.328125 -5.671875 L 3.328125 -5.046875 Z M 1.78125 -5.046875 "/></g></g></g><g fill="#ffffff" fill-opacity="1"><g transform="translate(126.659742, 218.142202)"><g><path d="M 1.5625 -4.65625 C 1.71875 -5.007812 1.957031 -5.28125 2.28125 -5.46875 C 2.613281 -5.664062 3.019531 -5.765625 3.5 -5.765625 L 3.5 -5.015625 L 3.296875 -5.015625 C 2.773438 -5.015625 2.351562 -4.867188 2.03125 -4.578125 C 1.71875 -4.296875 1.5625 -3.828125 1.5625 -3.171875 L 1.5625 0 L 0.828125 0 L 0.828125 -5.671875 L 1.5625 -5.671875 Z M 1.5625 -4.65625 "/></g></g></g><g fill="#ffffff" fill-opacity="1"><g transform="translate(130.414056, 218.142202)"><g><path d="M 3.3125 0.078125 C 2.78125 0.078125 2.300781 -0.0390625 1.875 -0.28125 C 1.445312 -0.519531 1.109375 -0.859375 0.859375 -1.296875 C 0.617188 -1.734375 0.5 -2.242188 0.5 -2.828125 C 0.5 -3.421875 0.625 -3.9375 0.875 -4.375 C 1.125 -4.8125 1.460938 -5.148438 1.890625 -5.390625 C 2.316406 -5.628906 2.796875 -5.75 3.328125 -5.75 C 3.859375 -5.75 4.335938 -5.628906 4.765625 -5.390625 C 5.203125 -5.148438 5.539062 -4.8125 5.78125 -4.375 C 6.03125 -3.9375 6.15625 -3.421875 6.15625 -2.828125 C 6.15625 -2.242188 6.03125 -1.734375 5.78125 -1.296875 C 5.539062 -0.859375 5.203125 -0.519531 4.765625 -0.28125 C 4.328125 -0.0390625 3.84375 0.078125 3.3125 0.078125 Z M 3.3125 -0.546875 C 3.6875 -0.546875 4.03125 -0.628906 4.34375 -0.796875 C 4.664062 -0.972656 4.925781 -1.226562 5.125 -1.5625 C 5.320312 -1.90625 5.421875 -2.328125 5.421875 -2.828125 C 5.421875 -3.328125 5.320312 -3.75 5.125 -4.09375 C 4.925781 -4.4375 4.664062 -4.691406 4.34375 -4.859375 C 4.03125 -5.023438 3.6875 -5.109375 3.3125 -5.109375 C 2.945312 -5.109375 2.601562 -5.023438 2.28125 -4.859375 C 1.96875 -4.691406 1.710938 -4.4375 1.515625 -4.09375 C 1.328125 -3.75 1.234375 -3.328125 1.234375 -2.828125 C 1.234375 -2.328125 1.328125 -1.90625 1.515625 -1.5625 C 1.710938 -1.226562 1.96875 -0.972656 2.28125 -0.796875 C 2.59375 -0.628906 2.9375 -0.546875 3.3125 -0.546875 Z M 3.3125 -0.546875 "/></g></g></g><g fill="#ffffff" fill-opacity="1"><g transform="translate(137.072251, 218.142202)"><g><path d="M 1.5625 -7.671875 L 1.5625 0 L 0.828125 0 L 0.828125 -7.671875 Z M 1.5625 -7.671875 "/></g></g></g><g fill="#ffffff" fill-opacity="1"><g transform="translate(139.44722, 218.142202)"><g><path d="M 0.953125 0.046875 C 0.796875 0.046875 0.664062 -0.00390625 0.5625 -0.109375 C 0.46875 -0.210938 0.421875 -0.335938 0.421875 -0.484375 C 0.421875 -0.640625 0.46875 -0.765625 0.5625 -0.859375 C 0.664062 -0.960938 0.796875 -1.015625 0.953125 -1.015625 C 1.097656 -1.015625 1.21875 -0.960938 1.3125 -0.859375 C 1.414062 -0.765625 1.46875 -0.640625 1.46875 -0.484375 C 1.46875 -0.335938 1.414062 -0.210938 1.3125 -0.109375 C 1.21875 -0.00390625 1.097656 0.046875 0.953125 0.046875 Z M 0.953125 -4.46875 C 0.796875 -4.46875 0.664062 -4.519531 0.5625 -4.625 C 0.46875 -4.726562 0.421875 -4.851562 0.421875 -5 C 0.421875 -5.15625 0.46875 -5.28125 0.5625 -5.375 C 0.664062 -5.476562 0.796875 -5.53125 0.953125 -5.53125 C 1.097656 -5.53125 1.21875 -5.476562 1.3125 -5.375 C 1.414062 -5.28125 1.46875 -5.15625 1.46875 -5 C 1.46875 -4.851562 1.414062 -4.726562 1.3125 -4.625 C 1.21875 -4.519531 1.097656 -4.46875 0.953125 -4.46875 Z M 0.953125 -4.46875 "/></g></g></g><g fill="#ffffff" fill-opacity="1"><g transform="translate(141.365857, 218.142202)"><g/></g></g><g fill="#ffffff" fill-opacity="1"><g transform="translate(144.207516, 218.142202)"><g><path d="M 4.21875 -3.75 C 4.625 -3.664062 4.96875 -3.453125 5.25 -3.109375 C 5.539062 -2.773438 5.6875 -2.382812 5.6875 -1.9375 C 5.6875 -1.570312 5.59375 -1.242188 5.40625 -0.953125 C 5.226562 -0.660156 4.960938 -0.425781 4.609375 -0.25 C 4.253906 -0.0820312 3.832031 0 3.34375 0 L 0.828125 0 L 0.828125 -7.25 L 3.265625 -7.25 C 4.003906 -7.25 4.5625 -7.078125 4.9375 -6.734375 C 5.320312 -6.398438 5.515625 -5.960938 5.515625 -5.421875 C 5.515625 -4.972656 5.394531 -4.609375 5.15625 -4.328125 C 4.914062 -4.046875 4.601562 -3.851562 4.21875 -3.75 Z M 1.5625 -4.046875 L 3.25 -4.046875 C 3.738281 -4.046875 4.113281 -4.160156 4.375 -4.390625 C 4.644531 -4.617188 4.78125 -4.941406 4.78125 -5.359375 C 4.78125 -5.753906 4.644531 -6.066406 4.375 -6.296875 C 4.113281 -6.523438 3.726562 -6.640625 3.21875 -6.640625 L 1.5625 -6.640625 Z M 3.28125 -0.609375 C 3.8125 -0.609375 4.222656 -0.734375 4.515625 -0.984375 C 4.804688 -1.234375 4.953125 -1.578125 4.953125 -2.015625 C 4.953125 -2.453125 4.796875 -2.796875 4.484375 -3.046875 C 4.179688 -3.304688 3.769531 -3.4375 3.25 -3.4375 L 1.5625 -3.4375 L 1.5625 -0.609375 Z M 3.28125 -0.609375 "/></g></g></g><g fill="#ffffff" fill-opacity="1"><g transform="translate(150.399021, 218.142202)"><g><path d="M 1.5625 -7.671875 L 1.5625 0 L 0.828125 0 L 0.828125 -7.671875 Z M 1.5625 -7.671875 "/></g></g></g><g fill="#ffffff" fill-opacity="1"><g transform="translate(152.77399, 218.142202)"><g><path d="M 3.3125 0.078125 C 2.78125 0.078125 2.300781 -0.0390625 1.875 -0.28125 C 1.445312 -0.519531 1.109375 -0.859375 0.859375 -1.296875 C 0.617188 -1.734375 0.5 -2.242188 0.5 -2.828125 C 0.5 -3.421875 0.625 -3.9375 0.875 -4.375 C 1.125 -4.8125 1.460938 -5.148438 1.890625 -5.390625 C 2.316406 -5.628906 2.796875 -5.75 3.328125 -5.75 C 3.859375 -5.75 4.335938 -5.628906 4.765625 -5.390625 C 5.203125 -5.148438 5.539062 -4.8125 5.78125 -4.375 C 6.03125 -3.9375 6.15625 -3.421875 6.15625 -2.828125 C 6.15625 -2.242188 6.03125 -1.734375 5.78125 -1.296875 C 5.539062 -0.859375 5.203125 -0.519531 4.765625 -0.28125 C 4.328125 -0.0390625 3.84375 0.078125 3.3125 0.078125 Z M 3.3125 -0.546875 C 3.6875 -0.546875 4.03125 -0.628906 4.34375 -0.796875 C 4.664062 -0.972656 4.925781 -1.226562 5.125 -1.5625 C 5.320312 -1.90625 5.421875 -2.328125 5.421875 -2.828125 C 5.421875 -3.328125 5.320312 -3.75 5.125 -4.09375 C 4.925781 -4.4375 4.664062 -4.691406 4.34375 -4.859375 C 4.03125 -5.023438 3.6875 -5.109375 3.3125 -5.109375 C 2.945312 -5.109375 2.601562 -5.023438 2.28125 -4.859375 C 1.96875 -4.691406 1.710938 -4.4375 1.515625 -4.09375 C 1.328125 -3.75 1.234375 -3.328125 1.234375 -2.828125 C 1.234375 -2.328125 1.328125 -1.90625 1.515625 -1.5625 C 1.710938 -1.226562 1.96875 -0.972656 2.28125 -0.796875 C 2.59375 -0.628906 2.9375 -0.546875 3.3125 -0.546875 Z M 3.3125 -0.546875 "/></g></g></g><g fill="#ffffff" fill-opacity="1"><g transform="translate(159.432185, 218.142202)"><g><path d="M 0.5 -2.828125 C 0.5 -3.421875 0.613281 -3.9375 0.84375 -4.375 C 1.082031 -4.8125 1.410156 -5.148438 1.828125 -5.390625 C 2.242188 -5.628906 2.71875 -5.75 3.25 -5.75 C 3.945312 -5.75 4.519531 -5.570312 4.96875 -5.21875 C 5.425781 -4.875 5.71875 -4.40625 5.84375 -3.8125 L 5.078125 -3.8125 C 4.972656 -4.226562 4.757812 -4.550781 4.4375 -4.78125 C 4.125 -5.007812 3.726562 -5.125 3.25 -5.125 C 2.863281 -5.125 2.519531 -5.035156 2.21875 -4.859375 C 1.914062 -4.691406 1.675781 -4.4375 1.5 -4.09375 C 1.320312 -3.75 1.234375 -3.328125 1.234375 -2.828125 C 1.234375 -2.328125 1.320312 -1.90625 1.5 -1.5625 C 1.675781 -1.21875 1.914062 -0.957031 2.21875 -0.78125 C 2.519531 -0.613281 2.863281 -0.53125 3.25 -0.53125 C 3.726562 -0.53125 4.125 -0.644531 4.4375 -0.875 C 4.757812 -1.101562 4.972656 -1.425781 5.078125 -1.84375 L 5.84375 -1.84375 C 5.71875 -1.257812 5.425781 -0.789062 4.96875 -0.4375 C 4.507812 -0.09375 3.9375 0.078125 3.25 0.078125 C 2.71875 0.078125 2.242188 -0.0390625 1.828125 -0.28125 C 1.410156 -0.519531 1.082031 -0.859375 0.84375 -1.296875 C 0.613281 -1.734375 0.5 -2.242188 0.5 -2.828125 Z M 0.5 -2.828125 "/></g></g></g><g fill="#ffffff" fill-opacity="1"><g transform="translate(165.78963, 218.142202)"><g><path d="M 3.890625 0 L 1.5625 -2.546875 L 1.5625 0 L 0.828125 0 L 0.828125 -7.671875 L 1.5625 -7.671875 L 1.5625 -3.140625 L 3.84375 -5.671875 L 4.859375 -5.671875 L 2.171875 -2.84375 L 4.875 0 Z M 3.890625 0 "/></g></g></g><g fill="#ffffff" fill-opacity="1"><g transform="translate(170.767729, 218.142202)"><g><path d="M 0.5 -2.828125 C 0.5 -3.421875 0.613281 -3.9375 0.84375 -4.375 C 1.082031 -4.8125 1.410156 -5.148438 1.828125 -5.390625 C 2.242188 -5.628906 2.71875 -5.75 3.25 -5.75 C 3.945312 -5.75 4.519531 -5.570312 4.96875 -5.21875 C 5.425781 -4.875 5.71875 -4.40625 5.84375 -3.8125 L 5.078125 -3.8125 C 4.972656 -4.226562 4.757812 -4.550781 4.4375 -4.78125 C 4.125 -5.007812 3.726562 -5.125 3.25 -5.125 C 2.863281 -5.125 2.519531 -5.035156 2.21875 -4.859375 C 1.914062 -4.691406 1.675781 -4.4375 1.5 -4.09375 C 1.320312 -3.75 1.234375 -3.328125 1.234375 -2.828125 C 1.234375 -2.328125 1.320312 -1.90625 1.5 -1.5625 C 1.675781 -1.21875 1.914062 -0.957031 2.21875 -0.78125 C 2.519531 -0.613281 2.863281 -0.53125 3.25 -0.53125 C 3.726562 -0.53125 4.125 -0.644531 4.4375 -0.875 C 4.757812 -1.101562 4.972656 -1.425781 5.078125 -1.84375 L 5.84375 -1.84375 C 5.71875 -1.257812 5.425781 -0.789062 4.96875 -0.4375 C 4.507812 -0.09375 3.9375 0.078125 3.25 0.078125 C 2.71875 0.078125 2.242188 -0.0390625 1.828125 -0.28125 C 1.410156 -0.519531 1.082031 -0.859375 0.84375 -1.296875 C 0.613281 -1.734375 0.5 -2.242188 0.5 -2.828125 Z M 0.5 -2.828125 "/></g></g></g><g fill="#ffffff" fill-opacity="1"><g transform="translate(177.125174, 218.142202)"><g><path d="M 3.53125 -5.765625 C 3.957031 -5.765625 4.34375 -5.675781 4.6875 -5.5 C 5.03125 -5.320312 5.300781 -5.046875 5.5 -4.671875 C 5.695312 -4.304688 5.796875 -3.851562 5.796875 -3.3125 L 5.796875 0 L 5.078125 0 L 5.078125 -3.234375 C 5.078125 -3.847656 4.921875 -4.316406 4.609375 -4.640625 C 4.304688 -4.972656 3.882812 -5.140625 3.34375 -5.140625 C 2.800781 -5.140625 2.367188 -4.960938 2.046875 -4.609375 C 1.722656 -4.265625 1.5625 -3.757812 1.5625 -3.09375 L 1.5625 0 L 0.828125 0 L 0.828125 -7.671875 L 1.5625 -7.671875 L 1.5625 -4.703125 C 1.738281 -5.035156 2 -5.296875 2.34375 -5.484375 C 2.695312 -5.671875 3.09375 -5.765625 3.53125 -5.765625 Z M 3.53125 -5.765625 "/></g></g></g><g fill="#ffffff" fill-opacity="1"><g transform="translate(183.690031, 218.142202)"><g><path d="M 0.5 -2.84375 C 0.5 -3.425781 0.613281 -3.9375 0.84375 -4.375 C 1.070312 -4.8125 1.390625 -5.148438 1.796875 -5.390625 C 2.210938 -5.628906 2.679688 -5.75 3.203125 -5.75 C 3.742188 -5.75 4.207031 -5.625 4.59375 -5.375 C 4.988281 -5.125 5.273438 -4.804688 5.453125 -4.421875 L 5.453125 -5.671875 L 6.171875 -5.671875 L 6.171875 0 L 5.453125 0 L 5.453125 -1.25 C 5.265625 -0.863281 4.972656 -0.546875 4.578125 -0.296875 C 4.191406 -0.046875 3.734375 0.078125 3.203125 0.078125 C 2.679688 0.078125 2.210938 -0.0390625 1.796875 -0.28125 C 1.390625 -0.519531 1.070312 -0.859375 0.84375 -1.296875 C 0.613281 -1.742188 0.5 -2.257812 0.5 -2.84375 Z M 5.453125 -2.828125 C 5.453125 -3.285156 5.359375 -3.6875 5.171875 -4.03125 C 4.984375 -4.375 4.726562 -4.640625 4.40625 -4.828125 C 4.082031 -5.015625 3.726562 -5.109375 3.34375 -5.109375 C 2.9375 -5.109375 2.570312 -5.019531 2.25 -4.84375 C 1.9375 -4.664062 1.6875 -4.40625 1.5 -4.0625 C 1.320312 -3.71875 1.234375 -3.3125 1.234375 -2.84375 C 1.234375 -2.375 1.320312 -1.960938 1.5 -1.609375 C 1.6875 -1.265625 1.9375 -1 2.25 -0.8125 C 2.570312 -0.632812 2.9375 -0.546875 3.34375 -0.546875 C 3.726562 -0.546875 4.082031 -0.640625 4.40625 -0.828125 C 4.726562 -1.015625 4.984375 -1.28125 5.171875 -1.625 C 5.359375 -1.96875 5.453125 -2.367188 5.453125 -2.828125 Z M 5.453125 -2.828125 "/></g></g></g><g fill="#ffffff" fill-opacity="1"><g transform="translate(190.690473, 218.142202)"><g><path d="M 1.1875 -6.734375 C 1.039062 -6.734375 0.914062 -6.785156 0.8125 -6.890625 C 0.707031 -6.992188 0.65625 -7.117188 0.65625 -7.265625 C 0.65625 -7.421875 0.707031 -7.546875 0.8125 -7.640625 C 0.914062 -7.742188 1.039062 -7.796875 1.1875 -7.796875 C 1.332031 -7.796875 1.457031 -7.742188 1.5625 -7.640625 C 1.664062 -7.546875 1.71875 -7.421875 1.71875 -7.265625 C 1.71875 -7.117188 1.664062 -6.992188 1.5625 -6.890625 C 1.457031 -6.785156 1.332031 -6.734375 1.1875 -6.734375 Z M 1.5625 -5.671875 L 1.5625 0 L 0.828125 0 L 0.828125 -5.671875 Z M 1.5625 -5.671875 "/></g></g></g><g fill="#ffffff" fill-opacity="1"><g transform="translate(193.065442, 218.142202)"><g><path d="M 3.484375 -5.765625 C 4.160156 -5.765625 4.710938 -5.554688 5.140625 -5.140625 C 5.578125 -4.722656 5.796875 -4.113281 5.796875 -3.3125 L 5.796875 0 L 5.078125 0 L 5.078125 -3.234375 C 5.078125 -3.847656 4.921875 -4.316406 4.609375 -4.640625 C 4.304688 -4.972656 3.882812 -5.140625 3.34375 -5.140625 C 2.800781 -5.140625 2.367188 -4.960938 2.046875 -4.609375 C 1.722656 -4.265625 1.5625 -3.757812 1.5625 -3.09375 L 1.5625 0 L 0.828125 0 L 0.828125 -5.671875 L 1.5625 -5.671875 L 1.5625 -4.703125 C 1.738281 -5.046875 1.992188 -5.304688 2.328125 -5.484375 C 2.671875 -5.671875 3.054688 -5.765625 3.484375 -5.765625 Z M 3.484375 -5.765625 "/></g></g></g><g fill="#ffffff" fill-opacity="1"><g transform="translate(199.630299, 218.142202)"><g><path d="M 4.34375 -4.15625 L 4.34375 -3.53125 L 0.3125 -3.53125 L 0.3125 -4.15625 Z M 4.34375 -4.15625 "/></g></g></g><g fill="#ffffff" fill-opacity="1"><g transform="translate(205.012867, 218.142202)"><g><path d="M 5.46875 -5.171875 C 5.46875 -4.546875 5.265625 -4.039062 4.859375 -3.65625 C 4.453125 -3.28125 3.835938 -3.09375 3.015625 -3.09375 L 1.5625 -3.09375 L 1.5625 0 L 0.828125 0 L 0.828125 -7.25 L 3.015625 -7.25 C 3.828125 -7.25 4.4375 -7.054688 4.84375 -6.671875 C 5.257812 -6.296875 5.46875 -5.796875 5.46875 -5.171875 Z M 3.015625 -3.71875 C 4.148438 -3.71875 4.71875 -4.203125 4.71875 -5.171875 C 4.71875 -5.648438 4.582031 -6.015625 4.3125 -6.265625 C 4.039062 -6.515625 3.609375 -6.640625 3.015625 -6.640625 L 1.5625 -6.640625 L 1.5625 -3.71875 Z M 3.015625 -3.71875 "/></g></g></g><g fill="#ffffff" fill-opacity="1"><g transform="translate(210.862125, 218.142202)"><g><path d="M 3.3125 0.078125 C 2.78125 0.078125 2.300781 -0.0390625 1.875 -0.28125 C 1.445312 -0.519531 1.109375 -0.859375 0.859375 -1.296875 C 0.617188 -1.734375 0.5 -2.242188 0.5 -2.828125 C 0.5 -3.421875 0.625 -3.9375 0.875 -4.375 C 1.125 -4.8125 1.460938 -5.148438 1.890625 -5.390625 C 2.316406 -5.628906 2.796875 -5.75 3.328125 -5.75 C 3.859375 -5.75 4.335938 -5.628906 4.765625 -5.390625 C 5.203125 -5.148438 5.539062 -4.8125 5.78125 -4.375 C 6.03125 -3.9375 6.15625 -3.421875 6.15625 -2.828125 C 6.15625 -2.242188 6.03125 -1.734375 5.78125 -1.296875 C 5.539062 -0.859375 5.203125 -0.519531 4.765625 -0.28125 C 4.328125 -0.0390625 3.84375 0.078125 3.3125 0.078125 Z M 3.3125 -0.546875 C 3.6875 -0.546875 4.03125 -0.628906 4.34375 -0.796875 C 4.664062 -0.972656 4.925781 -1.226562 5.125 -1.5625 C 5.320312 -1.90625 5.421875 -2.328125 5.421875 -2.828125 C 5.421875 -3.328125 5.320312 -3.75 5.125 -4.09375 C 4.925781 -4.4375 4.664062 -4.691406 4.34375 -4.859375 C 4.03125 -5.023438 3.6875 -5.109375 3.3125 -5.109375 C 2.945312 -5.109375 2.601562 -5.023438 2.28125 -4.859375 C 1.96875 -4.691406 1.710938 -4.4375 1.515625 -4.09375 C 1.328125 -3.75 1.234375 -3.328125 1.234375 -2.828125 C 1.234375 -2.328125 1.328125 -1.90625 1.515625 -1.5625 C 1.710938 -1.226562 1.96875 -0.972656 2.28125 -0.796875 C 2.59375 -0.628906 2.9375 -0.546875 3.3125 -0.546875 Z M 3.3125 -0.546875 "/></g></g></g><g fill="#ffffff" fill-opacity="1"><g transform="translate(217.520332, 218.142202)"><g><path d="M 8.296875 -5.671875 L 6.53125 0 L 5.796875 0 L 4.234375 -4.75 L 2.671875 0 L 1.9375 0 L 0.15625 -5.671875 L 0.890625 -5.671875 L 2.296875 -0.734375 L 3.890625 -5.671875 L 4.609375 -5.671875 L 6.1875 -0.71875 L 7.578125 -5.671875 Z M 8.296875 -5.671875 "/></g></g></g><g fill="#ffffff" fill-opacity="1"><g transform="translate(225.972708, 218.142202)"><g><path d="M 5.953125 -3.125 C 5.953125 -2.875 5.945312 -2.679688 5.9375 -2.546875 L 1.234375 -2.546875 C 1.253906 -2.117188 1.359375 -1.753906 1.546875 -1.453125 C 1.734375 -1.148438 1.976562 -0.921875 2.28125 -0.765625 C 2.582031 -0.609375 2.914062 -0.53125 3.28125 -0.53125 C 3.75 -0.53125 4.144531 -0.644531 4.46875 -0.875 C 4.789062 -1.101562 5.003906 -1.410156 5.109375 -1.796875 L 5.875 -1.796875 C 5.738281 -1.242188 5.441406 -0.789062 4.984375 -0.4375 C 4.535156 -0.09375 3.96875 0.078125 3.28125 0.078125 C 2.75 0.078125 2.269531 -0.0390625 1.84375 -0.28125 C 1.425781 -0.519531 1.097656 -0.859375 0.859375 -1.296875 C 0.617188 -1.734375 0.5 -2.242188 0.5 -2.828125 C 0.5 -3.421875 0.613281 -3.9375 0.84375 -4.375 C 1.082031 -4.820312 1.410156 -5.160156 1.828125 -5.390625 C 2.253906 -5.628906 2.738281 -5.75 3.28125 -5.75 C 3.820312 -5.75 4.289062 -5.628906 4.6875 -5.390625 C 5.09375 -5.160156 5.40625 -4.84375 5.625 -4.4375 C 5.84375 -4.039062 5.953125 -3.601562 5.953125 -3.125 Z M 5.21875 -3.140625 C 5.226562 -3.566406 5.144531 -3.925781 4.96875 -4.21875 C 4.789062 -4.519531 4.546875 -4.742188 4.234375 -4.890625 C 3.929688 -5.046875 3.601562 -5.125 3.25 -5.125 C 2.707031 -5.125 2.242188 -4.953125 1.859375 -4.609375 C 1.484375 -4.265625 1.273438 -3.773438 1.234375 -3.140625 Z M 5.21875 -3.140625 "/></g></g></g><g fill="#ffffff" fill-opacity="1"><g transform="translate(232.423491, 218.142202)"><g><path d="M 1.5625 -4.65625 C 1.71875 -5.007812 1.957031 -5.28125 2.28125 -5.46875 C 2.613281 -5.664062 3.019531 -5.765625 3.5 -5.765625 L 3.5 -5.015625 L 3.296875 -5.015625 C 2.773438 -5.015625 2.351562 -4.867188 2.03125 -4.578125 C 1.71875 -4.296875 1.5625 -3.828125 1.5625 -3.171875 L 1.5625 0 L 0.828125 0 L 0.828125 -5.671875 L 1.5625 -5.671875 Z M 1.5625 -4.65625 "/></g></g></g><g fill="#ffffff" fill-opacity="1"><g transform="translate(236.177816, 218.142202)"><g><path d="M 5.953125 -3.125 C 5.953125 -2.875 5.945312 -2.679688 5.9375 -2.546875 L 1.234375 -2.546875 C 1.253906 -2.117188 1.359375 -1.753906 1.546875 -1.453125 C 1.734375 -1.148438 1.976562 -0.921875 2.28125 -0.765625 C 2.582031 -0.609375 2.914062 -0.53125 3.28125 -0.53125 C 3.75 -0.53125 4.144531 -0.644531 4.46875 -0.875 C 4.789062 -1.101562 5.003906 -1.410156 5.109375 -1.796875 L 5.875 -1.796875 C 5.738281 -1.242188 5.441406 -0.789062 4.984375 -0.4375 C 4.535156 -0.09375 3.96875 0.078125 3.28125 0.078125 C 2.75 0.078125 2.269531 -0.0390625 1.84375 -0.28125 C 1.425781 -0.519531 1.097656 -0.859375 0.859375 -1.296875 C 0.617188 -1.734375 0.5 -2.242188 0.5 -2.828125 C 0.5 -3.421875 0.613281 -3.9375 0.84375 -4.375 C 1.082031 -4.820312 1.410156 -5.160156 1.828125 -5.390625 C 2.253906 -5.628906 2.738281 -5.75 3.28125 -5.75 C 3.820312 -5.75 4.289062 -5.628906 4.6875 -5.390625 C 5.09375 -5.160156 5.40625 -4.84375 5.625 -4.4375 C 5.84375 -4.039062 5.953125 -3.601562 5.953125 -3.125 Z M 5.21875 -3.140625 C 5.226562 -3.566406 5.144531 -3.925781 4.96875 -4.21875 C 4.789062 -4.519531 4.546875 -4.742188 4.234375 -4.890625 C 3.929688 -5.046875 3.601562 -5.125 3.25 -5.125 C 2.707031 -5.125 2.242188 -4.953125 1.859375 -4.609375 C 1.484375 -4.265625 1.273438 -3.773438 1.234375 -3.140625 Z M 5.21875 -3.140625 "/></g></g></g><g fill="#ffffff" fill-opacity="1"><g transform="translate(242.628599, 218.142202)"><g><path d="M 0.5 -2.84375 C 0.5 -3.425781 0.613281 -3.9375 0.84375 -4.375 C 1.082031 -4.8125 1.40625 -5.148438 1.8125 -5.390625 C 2.226562 -5.628906 2.695312 -5.75 3.21875 -5.75 C 3.71875 -5.75 4.164062 -5.625 4.5625 -5.375 C 4.96875 -5.132812 5.265625 -4.820312 5.453125 -4.4375 L 5.453125 -7.671875 L 6.171875 -7.671875 L 6.171875 0 L 5.453125 0 L 5.453125 -1.265625 C 5.273438 -0.867188 4.988281 -0.546875 4.59375 -0.296875 C 4.195312 -0.046875 3.734375 0.078125 3.203125 0.078125 C 2.679688 0.078125 2.210938 -0.0390625 1.796875 -0.28125 C 1.390625 -0.519531 1.070312 -0.859375 0.84375 -1.296875 C 0.613281 -1.742188 0.5 -2.257812 0.5 -2.84375 Z M 5.453125 -2.828125 C 5.453125 -3.285156 5.359375 -3.6875 5.171875 -4.03125 C 4.984375 -4.375 4.726562 -4.640625 4.40625 -4.828125 C 4.082031 -5.015625 3.726562 -5.109375 3.34375 -5.109375 C 2.9375 -5.109375 2.570312 -5.019531 2.25 -4.84375 C 1.9375 -4.664062 1.6875 -4.40625 1.5 -4.0625 C 1.320312 -3.71875 1.234375 -3.3125 1.234375 -2.84375 C 1.234375 -2.375 1.320312 -1.960938 1.5 -1.609375 C 1.6875 -1.265625 1.9375 -1 2.25 -0.8125 C 2.570312 -0.632812 2.9375 -0.546875 3.34375 -0.546875 C 3.726562 -0.546875 4.082031 -0.640625 4.40625 -0.828125 C 4.726562 -1.015625 4.984375 -1.28125 5.171875 -1.625 C 5.359375 -1.96875 5.453125 -2.367188 5.453125 -2.828125 Z M 5.453125 -2.828125 "/></g></g></g><g fill="#ffffff" fill-opacity="1"><g transform="translate(249.629041, 218.142202)"><g/></g></g><g fill="#ffffff" fill-opacity="1"><g transform="translate(252.4707, 218.142202)"><g><path d="M 1.5625 -6.65625 L 1.5625 -3.953125 L 4.3125 -3.953125 L 4.3125 -3.34375 L 1.5625 -3.34375 L 1.5625 -0.609375 L 4.609375 -0.609375 L 4.609375 0 L 0.828125 0 L 0.828125 -7.265625 L 4.609375 -7.265625 L 4.609375 -6.65625 Z M 1.5625 -6.65625 "/></g></g></g><g fill="#ffffff" fill-opacity="1"><g transform="translate(257.687329, 218.142202)"><g><path d="M 4.34375 -4.15625 L 4.34375 -3.53125 L 0.3125 -3.53125 L 0.3125 -4.15625 Z M 4.34375 -4.15625 "/></g></g></g><g fill="#ffffff" fill-opacity="1"><g transform="translate(263.069897, 218.142202)"><g><path d="M 0.5 -3.625 C 0.5 -4.34375 0.65625 -4.984375 0.96875 -5.546875 C 1.28125 -6.109375 1.703125 -6.546875 2.234375 -6.859375 C 2.773438 -7.171875 3.378906 -7.328125 4.046875 -7.328125 C 4.859375 -7.328125 5.550781 -7.132812 6.125 -6.75 C 6.707031 -6.375 7.128906 -5.835938 7.390625 -5.140625 L 6.53125 -5.140625 C 6.320312 -5.628906 6.003906 -6.007812 5.578125 -6.28125 C 5.160156 -6.5625 4.648438 -6.703125 4.046875 -6.703125 C 3.515625 -6.703125 3.035156 -6.578125 2.609375 -6.328125 C 2.179688 -6.078125 1.847656 -5.71875 1.609375 -5.25 C 1.367188 -4.78125 1.25 -4.238281 1.25 -3.625 C 1.25 -3.007812 1.367188 -2.46875 1.609375 -2 C 1.847656 -1.539062 2.179688 -1.1875 2.609375 -0.9375 C 3.035156 -0.695312 3.515625 -0.578125 4.046875 -0.578125 C 4.648438 -0.578125 5.160156 -0.710938 5.578125 -0.984375 C 6.003906 -1.253906 6.320312 -1.628906 6.53125 -2.109375 L 7.390625 -2.109375 C 7.128906 -1.421875 6.707031 -0.882812 6.125 -0.5 C 5.539062 -0.125 4.847656 0.0625 4.046875 0.0625 C 3.378906 0.0625 2.773438 -0.09375 2.234375 -0.40625 C 1.703125 -0.71875 1.28125 -1.15625 0.96875 -1.71875 C 0.65625 -2.28125 0.5 -2.914062 0.5 -3.625 Z M 0.5 -3.625 "/></g></g></g><g fill="#ffffff" fill-opacity="1"><g transform="translate(271.065952, 218.142202)"><g><path d="M 3.53125 -5.765625 C 3.957031 -5.765625 4.34375 -5.675781 4.6875 -5.5 C 5.03125 -5.320312 5.300781 -5.046875 5.5 -4.671875 C 5.695312 -4.304688 5.796875 -3.851562 5.796875 -3.3125 L 5.796875 0 L 5.078125 0 L 5.078125 -3.234375 C 5.078125 -3.847656 4.921875 -4.316406 4.609375 -4.640625 C 4.304688 -4.972656 3.882812 -5.140625 3.34375 -5.140625 C 2.800781 -5.140625 2.367188 -4.960938 2.046875 -4.609375 C 1.722656 -4.265625 1.5625 -3.757812 1.5625 -3.09375 L 1.5625 0 L 0.828125 0 L 0.828125 -7.671875 L 1.5625 -7.671875 L 1.5625 -4.703125 C 1.738281 -5.035156 2 -5.296875 2.34375 -5.484375 C 2.695312 -5.671875 3.09375 -5.765625 3.53125 -5.765625 Z M 3.53125 -5.765625 "/></g></g></g><g fill="#ffffff" fill-opacity="1"><g transform="translate(277.630809, 218.142202)"><g><path d="M 0.5 -2.84375 C 0.5 -3.425781 0.613281 -3.9375 0.84375 -4.375 C 1.070312 -4.8125 1.390625 -5.148438 1.796875 -5.390625 C 2.210938 -5.628906 2.679688 -5.75 3.203125 -5.75 C 3.742188 -5.75 4.207031 -5.625 4.59375 -5.375 C 4.988281 -5.125 5.273438 -4.804688 5.453125 -4.421875 L 5.453125 -5.671875 L 6.171875 -5.671875 L 6.171875 0 L 5.453125 0 L 5.453125 -1.25 C 5.265625 -0.863281 4.972656 -0.546875 4.578125 -0.296875 C 4.191406 -0.046875 3.734375 0.078125 3.203125 0.078125 C 2.679688 0.078125 2.210938 -0.0390625 1.796875 -0.28125 C 1.390625 -0.519531 1.070312 -0.859375 0.84375 -1.296875 C 0.613281 -1.742188 0.5 -2.257812 0.5 -2.84375 Z M 5.453125 -2.828125 C 5.453125 -3.285156 5.359375 -3.6875 5.171875 -4.03125 C 4.984375 -4.375 4.726562 -4.640625 4.40625 -4.828125 C 4.082031 -5.015625 3.726562 -5.109375 3.34375 -5.109375 C 2.9375 -5.109375 2.570312 -5.019531 2.25 -4.84375 C 1.9375 -4.664062 1.6875 -4.40625 1.5 -4.0625 C 1.320312 -3.71875 1.234375 -3.3125 1.234375 -2.84375 C 1.234375 -2.375 1.320312 -1.960938 1.5 -1.609375 C 1.6875 -1.265625 1.9375 -1 2.25 -0.8125 C 2.570312 -0.632812 2.9375 -0.546875 3.34375 -0.546875 C 3.726562 -0.546875 4.082031 -0.640625 4.40625 -0.828125 C 4.726562 -1.015625 4.984375 -1.28125 5.171875 -1.625 C 5.359375 -1.96875 5.453125 -2.367188 5.453125 -2.828125 Z M 5.453125 -2.828125 "/></g></g></g><g fill="#ffffff" fill-opacity="1"><g transform="translate(284.631251, 218.142202)"><g><path d="M 1.5625 -7.671875 L 1.5625 0 L 0.828125 0 L 0.828125 -7.671875 Z M 1.5625 -7.671875 "/></g></g></g><g fill="#ffffff" fill-opacity="1"><g transform="translate(287.00622, 218.142202)"><g><path d="M 1.5625 -7.671875 L 1.5625 0 L 0.828125 0 L 0.828125 -7.671875 Z M 1.5625 -7.671875 "/></g></g></g><g fill="#ffffff" fill-opacity="1"><g transform="translate(289.381189, 218.142202)"><g><path d="M 0.5 -2.84375 C 0.5 -3.425781 0.613281 -3.9375 0.84375 -4.375 C 1.070312 -4.8125 1.390625 -5.148438 1.796875 -5.390625 C 2.210938 -5.628906 2.679688 -5.75 3.203125 -5.75 C 3.742188 -5.75 4.207031 -5.625 4.59375 -5.375 C 4.988281 -5.125 5.273438 -4.804688 5.453125 -4.421875 L 5.453125 -5.671875 L 6.171875 -5.671875 L 6.171875 0 L 5.453125 0 L 5.453125 -1.25 C 5.265625 -0.863281 4.972656 -0.546875 4.578125 -0.296875 C 4.191406 -0.046875 3.734375 0.078125 3.203125 0.078125 C 2.679688 0.078125 2.210938 -0.0390625 1.796875 -0.28125 C 1.390625 -0.519531 1.070312 -0.859375 0.84375 -1.296875 C 0.613281 -1.742188 0.5 -2.257812 0.5 -2.84375 Z M 5.453125 -2.828125 C 5.453125 -3.285156 5.359375 -3.6875 5.171875 -4.03125 C 4.984375 -4.375 4.726562 -4.640625 4.40625 -4.828125 C 4.082031 -5.015625 3.726562 -5.109375 3.34375 -5.109375 C 2.9375 -5.109375 2.570312 -5.019531 2.25 -4.84375 C 1.9375 -4.664062 1.6875 -4.40625 1.5 -4.0625 C 1.320312 -3.71875 1.234375 -3.3125 1.234375 -2.84375 C 1.234375 -2.375 1.320312 -1.960938 1.5 -1.609375 C 1.6875 -1.265625 1.9375 -1 2.25 -0.8125 C 2.570312 -0.632812 2.9375 -0.546875 3.34375 -0.546875 C 3.726562 -0.546875 4.082031 -0.640625 4.40625 -0.828125 C 4.726562 -1.015625 4.984375 -1.28125 5.171875 -1.625 C 5.359375 -1.96875 5.453125 -2.367188 5.453125 -2.828125 Z M 5.453125 -2.828125 "/></g></g></g><g fill="#ffffff" fill-opacity="1"><g transform="translate(296.381632, 218.142202)"><g><path d="M 3.484375 -5.765625 C 4.160156 -5.765625 4.710938 -5.554688 5.140625 -5.140625 C 5.578125 -4.722656 5.796875 -4.113281 5.796875 -3.3125 L 5.796875 0 L 5.078125 0 L 5.078125 -3.234375 C 5.078125 -3.847656 4.921875 -4.316406 4.609375 -4.640625 C 4.304688 -4.972656 3.882812 -5.140625 3.34375 -5.140625 C 2.800781 -5.140625 2.367188 -4.960938 2.046875 -4.609375 C 1.722656 -4.265625 1.5625 -3.757812 1.5625 -3.09375 L 1.5625 0 L 0.828125 0 L 0.828125 -5.671875 L 1.5625 -5.671875 L 1.5625 -4.703125 C 1.738281 -5.046875 1.992188 -5.304688 2.328125 -5.484375 C 2.671875 -5.671875 3.054688 -5.765625 3.484375 -5.765625 Z M 3.484375 -5.765625 "/></g></g></g><g fill="#ffffff" fill-opacity="1"><g transform="translate(302.946489, 218.142202)"><g/></g></g><g fill="#ffffff" fill-opacity="1"><g transform="translate(305.788148, 218.142202)"><g><path d="M 3.03125 0.078125 C 2.550781 0.078125 2.128906 -0.00390625 1.765625 -0.171875 C 1.398438 -0.335938 1.113281 -0.566406 0.90625 -0.859375 C 0.707031 -1.160156 0.597656 -1.5 0.578125 -1.875 L 1.34375 -1.875 C 1.382812 -1.519531 1.539062 -1.207031 1.8125 -0.9375 C 2.09375 -0.675781 2.5 -0.546875 3.03125 -0.546875 C 3.519531 -0.546875 3.90625 -0.671875 4.1875 -0.921875 C 4.476562 -1.171875 4.625 -1.488281 4.625 -1.875 C 4.625 -2.1875 4.546875 -2.4375 4.390625 -2.625 C 4.234375 -2.820312 4.035156 -2.96875 3.796875 -3.0625 C 3.554688 -3.15625 3.234375 -3.253906 2.828125 -3.359375 C 2.335938 -3.492188 1.953125 -3.625 1.671875 -3.75 C 1.390625 -3.875 1.144531 -4.066406 0.9375 -4.328125 C 0.738281 -4.585938 0.640625 -4.941406 0.640625 -5.390625 C 0.640625 -5.765625 0.734375 -6.097656 0.921875 -6.390625 C 1.117188 -6.691406 1.394531 -6.921875 1.75 -7.078125 C 2.101562 -7.242188 2.507812 -7.328125 2.96875 -7.328125 C 3.632812 -7.328125 4.171875 -7.160156 4.578125 -6.828125 C 4.992188 -6.503906 5.234375 -6.085938 5.296875 -5.578125 L 4.515625 -5.578125 C 4.460938 -5.867188 4.296875 -6.128906 4.015625 -6.359375 C 3.742188 -6.597656 3.375 -6.71875 2.90625 -6.71875 C 2.46875 -6.71875 2.101562 -6.597656 1.8125 -6.359375 C 1.519531 -6.128906 1.375 -5.816406 1.375 -5.421875 C 1.375 -5.109375 1.453125 -4.859375 1.609375 -4.671875 C 1.773438 -4.492188 1.976562 -4.351562 2.21875 -4.25 C 2.457031 -4.15625 2.78125 -4.050781 3.1875 -3.9375 C 3.65625 -3.8125 4.035156 -3.679688 4.328125 -3.546875 C 4.617188 -3.421875 4.863281 -3.226562 5.0625 -2.96875 C 5.257812 -2.707031 5.359375 -2.351562 5.359375 -1.90625 C 5.359375 -1.570312 5.269531 -1.25 5.09375 -0.9375 C 4.914062 -0.632812 4.648438 -0.390625 4.296875 -0.203125 C 3.941406 -0.015625 3.519531 0.078125 3.03125 0.078125 Z M 3.03125 0.078125 "/></g></g></g><g fill="#ffffff" fill-opacity="1"><g transform="translate(311.720376, 218.142202)"><g><path d="M 5.5 -5.671875 L 2.140625 2.671875 L 1.375 2.671875 L 2.484375 -0.03125 L 0.15625 -5.671875 L 0.953125 -5.671875 L 2.890625 -0.828125 L 4.75 -5.671875 Z M 5.5 -5.671875 "/></g></g></g><g fill="#ffffff" fill-opacity="1"><g transform="translate(317.372589, 218.142202)"><g><path d="M 2.78125 0.078125 C 2.132812 0.078125 1.601562 -0.0664062 1.1875 -0.359375 C 0.78125 -0.660156 0.550781 -1.070312 0.5 -1.59375 L 1.25 -1.59375 C 1.28125 -1.28125 1.425781 -1.023438 1.6875 -0.828125 C 1.957031 -0.628906 2.316406 -0.53125 2.765625 -0.53125 C 3.160156 -0.53125 3.46875 -0.625 3.6875 -0.8125 C 3.914062 -1 4.03125 -1.226562 4.03125 -1.5 C 4.03125 -1.695312 3.96875 -1.859375 3.84375 -1.984375 C 3.71875 -2.109375 3.5625 -2.207031 3.375 -2.28125 C 3.1875 -2.351562 2.929688 -2.429688 2.609375 -2.515625 C 2.179688 -2.617188 1.835938 -2.726562 1.578125 -2.84375 C 1.316406 -2.957031 1.09375 -3.117188 0.90625 -3.328125 C 0.726562 -3.546875 0.640625 -3.84375 0.640625 -4.21875 C 0.640625 -4.488281 0.71875 -4.738281 0.875 -4.96875 C 1.039062 -5.207031 1.273438 -5.394531 1.578125 -5.53125 C 1.890625 -5.675781 2.238281 -5.75 2.625 -5.75 C 3.226562 -5.75 3.71875 -5.59375 4.09375 -5.28125 C 4.46875 -4.976562 4.671875 -4.554688 4.703125 -4.015625 L 3.96875 -4.015625 C 3.945312 -4.347656 3.816406 -4.613281 3.578125 -4.8125 C 3.347656 -5.019531 3.023438 -5.125 2.609375 -5.125 C 2.234375 -5.125 1.929688 -5.035156 1.703125 -4.859375 C 1.484375 -4.691406 1.375 -4.476562 1.375 -4.21875 C 1.375 -4 1.441406 -3.816406 1.578125 -3.671875 C 1.710938 -3.535156 1.878906 -3.425781 2.078125 -3.34375 C 2.273438 -3.269531 2.546875 -3.179688 2.890625 -3.078125 C 3.296875 -2.972656 3.617188 -2.867188 3.859375 -2.765625 C 4.097656 -2.660156 4.300781 -2.503906 4.46875 -2.296875 C 4.644531 -2.097656 4.738281 -1.832031 4.75 -1.5 C 4.75 -1.195312 4.664062 -0.925781 4.5 -0.6875 C 4.332031 -0.445312 4.097656 -0.257812 3.796875 -0.125 C 3.503906 0.0078125 3.164062 0.078125 2.78125 0.078125 Z M 2.78125 0.078125 "/></g></g></g><g fill="#ffffff" fill-opacity="1"><g transform="translate(322.661819, 218.142202)"><g><path d="M 1.78125 -5.046875 L 1.78125 -1.53125 C 1.78125 -1.1875 1.84375 -0.945312 1.96875 -0.8125 C 2.101562 -0.6875 2.335938 -0.625 2.671875 -0.625 L 3.328125 -0.625 L 3.328125 0 L 2.546875 0 C 2.035156 0 1.65625 -0.117188 1.40625 -0.359375 C 1.15625 -0.597656 1.03125 -0.988281 1.03125 -1.53125 L 1.03125 -5.046875 L 0.25 -5.046875 L 0.25 -5.671875 L 1.03125 -5.671875 L 1.03125 -7.09375 L 1.78125 -7.09375 L 1.78125 -5.671875 L 3.328125 -5.671875 L 3.328125 -5.046875 Z M 1.78125 -5.046875 "/></g></g></g><g fill="#ffffff" fill-opacity="1"><g transform="translate(326.353912, 218.142202)"><g><path d="M 5.953125 -3.125 C 5.953125 -2.875 5.945312 -2.679688 5.9375 -2.546875 L 1.234375 -2.546875 C 1.253906 -2.117188 1.359375 -1.753906 1.546875 -1.453125 C 1.734375 -1.148438 1.976562 -0.921875 2.28125 -0.765625 C 2.582031 -0.609375 2.914062 -0.53125 3.28125 -0.53125 C 3.75 -0.53125 4.144531 -0.644531 4.46875 -0.875 C 4.789062 -1.101562 5.003906 -1.410156 5.109375 -1.796875 L 5.875 -1.796875 C 5.738281 -1.242188 5.441406 -0.789062 4.984375 -0.4375 C 4.535156 -0.09375 3.96875 0.078125 3.28125 0.078125 C 2.75 0.078125 2.269531 -0.0390625 1.84375 -0.28125 C 1.425781 -0.519531 1.097656 -0.859375 0.859375 -1.296875 C 0.617188 -1.734375 0.5 -2.242188 0.5 -2.828125 C 0.5 -3.421875 0.613281 -3.9375 0.84375 -4.375 C 1.082031 -4.820312 1.410156 -5.160156 1.828125 -5.390625 C 2.253906 -5.628906 2.738281 -5.75 3.28125 -5.75 C 3.820312 -5.75 4.289062 -5.628906 4.6875 -5.390625 C 5.09375 -5.160156 5.40625 -4.84375 5.625 -4.4375 C 5.84375 -4.039062 5.953125 -3.601562 5.953125 -3.125 Z M 5.21875 -3.140625 C 5.226562 -3.566406 5.144531 -3.925781 4.96875 -4.21875 C 4.789062 -4.519531 4.546875 -4.742188 4.234375 -4.890625 C 3.929688 -5.046875 3.601562 -5.125 3.25 -5.125 C 2.707031 -5.125 2.242188 -4.953125 1.859375 -4.609375 C 1.484375 -4.265625 1.273438 -3.773438 1.234375 -3.140625 Z M 5.21875 -3.140625 "/></g></g></g><g fill="#ffffff" fill-opacity="1"><g transform="translate(332.804694, 218.142202)"><g><path d="M 7.578125 -5.765625 C 8.234375 -5.765625 8.769531 -5.554688 9.1875 -5.140625 C 9.613281 -4.722656 9.828125 -4.113281 9.828125 -3.3125 L 9.828125 0 L 9.109375 0 L 9.109375 -3.234375 C 9.109375 -3.847656 8.957031 -4.316406 8.65625 -4.640625 C 8.363281 -4.972656 7.960938 -5.140625 7.453125 -5.140625 C 6.921875 -5.140625 6.492188 -4.960938 6.171875 -4.609375 C 5.859375 -4.253906 5.703125 -3.742188 5.703125 -3.078125 L 5.703125 0 L 4.984375 0 L 4.984375 -3.234375 C 4.984375 -3.847656 4.832031 -4.316406 4.53125 -4.640625 C 4.238281 -4.972656 3.832031 -5.140625 3.3125 -5.140625 C 2.78125 -5.140625 2.351562 -4.960938 2.03125 -4.609375 C 1.71875 -4.253906 1.5625 -3.742188 1.5625 -3.078125 L 1.5625 0 L 0.828125 0 L 0.828125 -5.671875 L 1.5625 -5.671875 L 1.5625 -4.6875 C 1.738281 -5.039062 1.992188 -5.304688 2.328125 -5.484375 C 2.660156 -5.671875 3.03125 -5.765625 3.4375 -5.765625 C 3.925781 -5.765625 4.351562 -5.644531 4.71875 -5.40625 C 5.09375 -5.175781 5.363281 -4.832031 5.53125 -4.375 C 5.6875 -4.820312 5.945312 -5.164062 6.3125 -5.40625 C 6.6875 -5.644531 7.109375 -5.765625 7.578125 -5.765625 Z M 7.578125 -5.765625 "/></g></g></g></svg>